HIERARCHY
ROOT Root
{
  OFFSET 0.0 0.0 0.0
  CHANNELS 6 Xposition Yposition Zposition Zrotation Yrotation Xrotation
  JOINT Hips
  {
    OFFSET 0.0 100.0 0.0
    CHANNELS 6 Xposition Yposition Zposition Zrotation Yrotation Xrotation
    JOINT Spine1
    {
      OFFSET 5.003913 -0.037094 -0.013727
      CHANNELS 3 Zrotation Yrotation Xrotation
      JOINT Spine2
      {
        OFFSET 7.125363 -1e-06 0.0
        CHANNELS 3 Zrotation Yrotation Xrotation
        JOINT Chest
        {
          OFFSET 7.594027 1e-06 0.0
          CHANNELS 3 Zrotation Yrotation Xrotation
          JOINT Neck1
          {
            OFFSET 26.313086 -0.460272 -0.181672
            CHANNELS 3 Zrotation Yrotation Xrotation
            JOINT Neck2
            {
              OFFSET 8.045911 0.0 0.0
              CHANNELS 3 Zrotation Yrotation Xrotation
              JOINT Head
              {
                OFFSET 6.432774 0.0 0.0
                CHANNELS 3 Zrotation Yrotation Xrotation
                JOINT HeadEnd
                {
                  OFFSET 16.169773 0.06451 0.00362
                  CHANNELS 3 Zrotation Yrotation Xrotation
                }
                JOINT Jaw
                {
                  OFFSET 0.108741 3.12938 0.002639
                  CHANNELS 3 Zrotation Yrotation Xrotation
                }
                JOINT LeftEye
                {
                  OFFSET 4.45173 8.166359 3.206392
                  CHANNELS 3 Zrotation Yrotation Xrotation
                }
                JOINT RightEye
                {
                  OFFSET 4.436895 8.135758 -3.222429
                  CHANNELS 3 Zrotation Yrotation Xrotation
                }
              }
            }
          }
          JOINT LeftShoulder
          {
            OFFSET 23.218927 5.195579 1.621656
            CHANNELS 3 Zrotation Yrotation Xrotation
            JOINT LeftArm
            {
              OFFSET 15.902118 2e-06 -2e-06
              CHANNELS 3 Zrotation Yrotation Xrotation
              JOINT LeftForeArm
              {
                OFFSET 28.739307 0.0 -1e-06
                CHANNELS 3 Zrotation Yrotation Xrotation
                JOINT LeftHand
                {
                  OFFSET 27.093981 -4e-06 0.0
                  CHANNELS 3 Zrotation Yrotation Xrotation
                  JOINT LeftHandThumb1
                  {
                    OFFSET 2.276781 3.380274 0.83384
                    CHANNELS 3 Zrotation Yrotation Xrotation
                    JOINT LeftHandThumb2
                    {
                      OFFSET 4.705309 -1e-06 -1e-06
                      CHANNELS 3 Zrotation Yrotation Xrotation
                      JOINT LeftHandThumb3
                      {
                        OFFSET 2.798515 0.0 3e-06
                        CHANNELS 3 Zrotation Yrotation Xrotation
                        JOINT LeftHandThumbEnd
                        {
                          OFFSET 3.180793 4e-06 -4e-06
                          CHANNELS 3 Zrotation Yrotation Xrotation
                        }
                      }
                    }
                  }
                  JOINT LeftHandIndex1
                  {
                    OFFSET 3.247786 2.352677 0.137192
                    CHANNELS 3 Zrotation Yrotation Xrotation
                    JOINT LeftHandIndex2
                    {
                      OFFSET 6.367095 1e-06 0.0
                      CHANNELS 3 Zrotation Yrotation Xrotation
                      JOINT LeftHandIndex3
                      {
                        OFFSET 3.662364 0.0 0.0
                        CHANNELS 3 Zrotation Yrotation Xrotation
                        JOINT LeftHandIndex4
                        {
                          OFFSET 2.329242 4e-06 -4e-06
                          CHANNELS 3 Zrotation Yrotation Xrotation
                          JOINT LeftHandIndexEnd
                          {
                            OFFSET 2.767823 1e-06 0.0
                            CHANNELS 3 Zrotation Yrotation Xrotation
                          }
                        }
                      }
                    }
                  }
                  JOINT LeftHandMiddle1
                  {
                    OFFSET 3.163612 0.945023 -0.406112
                    CHANNELS 3 Zrotation Yrotation Xrotation
                    JOINT LeftHandMiddle2
                    {
                      OFFSET 6.276789 3e-06 0.0
                      CHANNELS 3 Zrotation Yrotation Xrotation
                      JOINT LeftHandMiddle3
                      {
                        OFFSET 4.35652 -1e-06 4e-06
                        CHANNELS 3 Zrotation Yrotation Xrotation
                        JOINT LeftHandMiddle4
                        {
                          OFFSET 2.996877 0.0 8e-06
                          CHANNELS 3 Zrotation Yrotation Xrotation
                          JOINT LeftHandMiddleEnd
                          {
                            OFFSET 2.323256 3e-06 -4e-06
                            CHANNELS 3 Zrotation Yrotation Xrotation
                          }
                        }
                      }
                    }
                  }
                  JOINT LeftHandRing1
                  {
                    OFFSET 2.882606 -0.309162 0.107445
                    CHANNELS 3 Zrotation Yrotation Xrotation
                    JOINT LeftHandRing2
                    {
                      OFFSET 6.033198 0.0 4e-06
                      CHANNELS 3 Zrotation Yrotation Xrotation
                      JOINT LeftHandRing3
                      {
                        OFFSET 4.350578 3e-06 0.0
                        CHANNELS 3 Zrotation Yrotation Xrotation
                        JOINT LeftHandRing4
                        {
                          OFFSET 2.651321 2e-06 -7e-06
                          CHANNELS 3 Zrotation Yrotation Xrotation
                          JOINT LeftHandRingEnd
                          {
                            OFFSET 1.937663 1e-06 -4e-06
                            CHANNELS 3 Zrotation Yrotation Xrotation
                          }
                        }
                      }
                    }
                  }
                  JOINT LeftHandPinky1
                  {
                    OFFSET 2.865315 -1.525436 0.575687
                    CHANNELS 3 Zrotation Yrotation Xrotation
                    JOINT LeftHandPinky2
                    {
                      OFFSET 5.54936 1e-06 -8e-06
                      CHANNELS 3 Zrotation Yrotation Xrotation
                      JOINT LeftHandPinky3
                      {
                        OFFSET 3.070974 0.0 -4e-06
                        CHANNELS 3 Zrotation Yrotation Xrotation
                        JOINT LeftHandPinky4
                        {
                          OFFSET 1.549672 1e-06 0.0
                          CHANNELS 3 Zrotation Yrotation Xrotation
                          JOINT LeftHandPinkyEnd
                          {
                            OFFSET 1.952123 0.0 0.0
                            CHANNELS 3 Zrotation Yrotation Xrotation
                          }
                        }
                      }
                    }
                  }
                }
              }
            }
          }
          JOINT RightShoulder
          {
            OFFSET 23.161716 5.296122 -1.380114
            CHANNELS 3 Zrotation Yrotation Xrotation
            JOINT RightArm
            {
              OFFSET -16.027195 -2e-06 1.1e-05
              CHANNELS 3 Zrotation Yrotation Xrotation
              JOINT RightForeArm
              {
                OFFSET -28.736639 4e-06 2e-06
                CHANNELS 3 Zrotation Yrotation Xrotation
                JOINT RightHand
                {
                  OFFSET -27.133619 6e-06 0.0
                  CHANNELS 3 Zrotation Yrotation Xrotation
                  JOINT RightHandThumb1
                  {
                    OFFSET -2.274328 -3.351035 -0.83067
                    CHANNELS 3 Zrotation Yrotation Xrotation
                    JOINT RightHandThumb2
                    {
                      OFFSET -4.703594 -3e-06 2e-06
                      CHANNELS 3 Zrotation Yrotation Xrotation
                      JOINT RightHandThumb3
                      {
                        OFFSET -2.794935 -4e-06 -3e-06
                        CHANNELS 3 Zrotation Yrotation Xrotation
                        JOINT RightHandThumbEnd
                        {
                          OFFSET -3.183852 4e-06 1e-06
                          CHANNELS 3 Zrotation Yrotation Xrotation
                        }
                      }
                    }
                  }
                  JOINT RightHandIndex1
                  {
                    OFFSET -3.253496 -2.33755 -0.127667
                    CHANNELS 3 Zrotation Yrotation Xrotation
                    JOINT RightHandIndex2
                    {
                      OFFSET -6.344434 0.0 0.0
                      CHANNELS 3 Zrotation Yrotation Xrotation
                      JOINT RightHandIndex3
                      {
                        OFFSET -3.654871 0.0 -8e-06
                        CHANNELS 3 Zrotation Yrotation Xrotation
                        JOINT RightHandIndex4
                        {
                          OFFSET -2.327586 -1e-06 0.0
                          CHANNELS 3 Zrotation Yrotation Xrotation
                          JOINT RightHandIndexEnd
                          {
                            OFFSET -2.770001 3e-06 8e-06
                            CHANNELS 3 Zrotation Yrotation Xrotation
                          }
                        }
                      }
                    }
                  }
                  JOINT RightHandMiddle1
                  {
                    OFFSET -3.168223 -0.944764 0.411762
                    CHANNELS 3 Zrotation Yrotation Xrotation
                    JOINT RightHandMiddle2
                    {
                      OFFSET -6.266691 -1e-06 -4e-06
                      CHANNELS 3 Zrotation Yrotation Xrotation
                      JOINT RightHandMiddle3
                      {
                        OFFSET -4.348901 0.0 0.0
                        CHANNELS 3 Zrotation Yrotation Xrotation
                        JOINT RightHandMiddle4
                        {
                          OFFSET -3.00024 2e-06 -4e-06
                          CHANNELS 3 Zrotation Yrotation Xrotation
                          JOINT RightHandMiddleEnd
                          {
                            OFFSET -2.321477 -4e-06 -4e-06
                            CHANNELS 3 Zrotation Yrotation Xrotation
                          }
                        }
                      }
                    }
                  }
                  JOINT RightHandRing1
                  {
                    OFFSET -2.885654 0.293261 -0.119232
                    CHANNELS 3 Zrotation Yrotation Xrotation
                    JOINT RightHandRing2
                    {
                      OFFSET -6.032835 -1e-06 -4e-06
                      CHANNELS 3 Zrotation Yrotation Xrotation
                      JOINT RightHandRing3
                      {
                        OFFSET -4.33881 0.0 -4e-06
                        CHANNELS 3 Zrotation Yrotation Xrotation
                        JOINT RightHandRing4
                        {
                          OFFSET -2.654903 -4e-06 -4e-06
                          CHANNELS 3 Zrotation Yrotation Xrotation
                          JOINT RightHandRingEnd
                          {
                            OFFSET -1.935122 0.0 4e-06
                            CHANNELS 3 Zrotation Yrotation Xrotation
                          }
                        }
                      }
                    }
                  }
                  JOINT RightHandPinky1
                  {
                    OFFSET -2.866241 1.503904 -0.60527
                    CHANNELS 3 Zrotation Yrotation Xrotation
                    JOINT RightHandPinky2
                    {
                      OFFSET -5.553177 -2e-06 0.0
                      CHANNELS 3 Zrotation Yrotation Xrotation
                      JOINT RightHandPinky3
                      {
                        OFFSET -3.062664 -1e-06 -4e-06
                        CHANNELS 3 Zrotation Yrotation Xrotation
                        JOINT RightHandPinky4
                        {
                          OFFSET -1.546529 2e-06 4e-06
                          CHANNELS 3 Zrotation Yrotation Xrotation
                          JOINT RightHandPinkyEnd
                          {
                            OFFSET -1.952341 0.0 -4e-06
                            CHANNELS 3 Zrotation Yrotation Xrotation
                          }
                        }
                      }
                    }
                  }
                }
              }
            }
          }
        }
      }
    }
    JOINT LeftLeg
    {
      OFFSET -8.443107 2.567604 10.043214
      CHANNELS 3 Zrotation Yrotation Xrotation
      JOINT LeftShin
      {
        OFFSET 43.229198 1e-06 -1e-06
        CHANNELS 3 Zrotation Yrotation Xrotation
        JOINT LeftFoot
        {
          OFFSET 42.298611 1e-06 1e-06
          CHANNELS 3 Zrotation Yrotation Xrotation
          JOINT LeftToeBase
          {
            OFFSET 14.165858 1e-06 0.0
            CHANNELS 3 Zrotation Yrotation Xrotation
            JOINT LeftToeEnd
            {
              OFFSET 6.7141 -0.234461 0.0
              CHANNELS 3 Zrotation Yrotation Xrotation
            }
          }
        }
      }
    }
    JOINT RightLeg
    {
      OFFSET -8.303923 2.592729 -10.047278
      CHANNELS 3 Zrotation Yrotation Xrotation
      JOINT RightShin
      {
        OFFSET -43.369682 0.0 1e-06
        CHANNELS 3 Zrotation Yrotation Xrotation
        JOINT RightFoot
        {
          OFFSET -42.260784 4e-06 2e-06
          CHANNELS 3 Zrotation Yrotation Xrotation
          JOINT RightToeBase
          {
            OFFSET -14.222245 -2e-06 -1e-06
            CHANNELS 3 Zrotation Yrotation Xrotation
            JOINT RightToeEnd
            {
              OFFSET -6.660062 0.232574 -2e-06
              CHANNELS 3 Zrotation Yrotation Xrotation
            }
          }
        }
      }
    }
  }
}
MOTION
Frames: 4
Frame Time: 0.03333333333333333
0.0 0.0 0.0 0.0 -0.0 0.0 2.600193 100.071968 1.249045 92.884109 2.249409 90.283615 5.62947 -2.321277 -0.578144 -9.784135 -0.848505 0.166101 19.590822 -0.271003 -1.847492 32.018471 -1.12202 3.387544 -2.735151 -0.615852 1.473372 -39.503876 -0.035083 2.273421 6e-06 0.0 -0.0 0.068393 0.030048 -0.09747 -0.017311 -0.005002 -0.101768 -0.01623 0.058242 -0.08563 -92.380386 -72.132668 114.881027 31.072317 -32.223679 28.170559 49.676121 -1.655488 -0.432165 2.874485 12.355289 3.954221 17.636627 -26.322729 52.411201 -19.466661 -14.395597 29.410389 -2e-06 -8.774821 -1e-06 16.533812 -18.699671 6.004872 -0.609776 -1.795652 -3.889329 -4.807087 -11.046809 -2.937851 6e-06 -20.976015 0.0 -5.019967 -25.033554 -4.031882 5e-06 -0.0 1e-06 -10.634533 -5.686969 -3.565587 10.573276 -17.922953 -3.113901 3e-06 -13.82121 1e-06 -0.501776 -31.181505 -4.027016 -11.412126 -60.57793 7.790896 -13.982712 -7.150195 -2.875042 13.772729 -8.401491 -3.218241 0.347738 -34.211544 0.771651 -0.963029 -17.733366 2.62102 0.0 1e-06 1e-06 -17.346416 -20.095215 -4.201782 21.757557 -1.638376 3.866426 2e-06 -6.338824 1e-06 -1.697586 -22.591745 -6.194007 1e-06 -3e-06 -3e-06 73.465546 -75.728882 129.495911 28.070467 -39.490646 34.952663 49.792648 0.154053 -0.499611 -4.296779 11.151979 -15.135679 22.18211 -20.375895 49.933315 -16.701809 -16.743525 28.476528 -4e-06 -12.690597 -2e-06 16.65049 -17.501852 2.340371 -0.10592 -1.513855 -4.275881 -5.03904 -5.612869 -2.953557 4e-06 -11.02052 -1e-06 -6.111295 -15.895328 -3.84047 0.0 -0.0 0.0 -10.283367 -5.680287 -4.341839 11.028292 -11.302402 -2.372633 -1.384267 -14.238575 -6.320121 -0.625437 -26.924179 -3.827598 -4.003068 -49.720596 -3.622603 -13.708519 -7.363474 -3.720941 18.141144 -14.052737 -3.242671 5e-06 -18.787266 -2e-06 -0.429713 -8.456041 2.555504 1e-06 -0.0 -1e-06 -15.923532 -20.094479 -5.473584 30.419205 -7.190824 1.735927 3e-06 -8.162922 -2e-06 -1.861902 -22.861467 -6.167939 -0.0 -1e-06 -2e-06 171.51741 2.229249 -7.105805 13.210288 -0.075648 0.062844 -69.509239 -6.474535 0.756673 -5.552589 1.562005 2.109193 -0.999998 -1e-06 -0.0 -3.669316 -16.207306 -11.654685 71.209274 -0.297291 0.211806 -73.492981 1.224248 -2.804757 -6.189873 0.638795 1.664847 -1.000003 -0.0 -0.0 
0.0 0.0 0.0 0.0 -0.0 0.0 3.226472 100.197266 4.165165 92.782951 2.968518 90.596855 5.881923 -2.323479 -0.624696 -9.718155 -0.804645 -0.124603 19.627819 0.048729 -2.142754 32.05106 -0.825758 3.417283 -2.713131 -0.74432 1.30599 -39.313343 -0.235707 2.291995 6e-06 0.0 0.0 0.042669 0.022929 -0.077963 -0.075706 0.003044 -0.087828 -0.069687 0.035676 -0.061914 -92.392883 -72.302895 114.996414 31.321169 -31.576145 25.749138 50.162262 -1.527287 -0.427749 3.071295 12.878854 3.934902 17.636625 -26.322729 52.411205 -19.466658 -14.395594 29.410393 0.0 -8.77482 -1e-06 16.292387 -18.557615 6.021034 -0.609776 -1.795653 -3.889328 -4.807088 -11.046809 -2.937851 3e-06 -20.976015 0.0 -5.01997 -25.033558 -4.031882 7e-06 1e-06 2e-06 -10.634533 -5.686968 -3.565589 10.573271 -17.922947 -3.1139 1e-06 -13.821206 2e-06 -0.501777 -31.181498 -4.027016 -11.112312 -60.400402 7.635708 -13.982712 -7.150198 -2.875041 13.772727 -8.401489 -3.218241 0.347732 -34.211552 0.771653 -0.96303 -17.733366 2.62102 -1e-06 0.0 0.0 -17.346418 -20.095219 -4.201783 21.757557 -1.638374 3.866431 -0.0 -6.338824 1e-06 -1.697589 -22.591745 -6.194011 -1e-06 -5e-06 -1e-06 73.124413 -75.37429 129.949051 28.725161 -40.399345 33.957005 49.250938 0.167044 -0.538146 -4.348876 11.405023 -15.539103 22.182114 -20.375896 49.933323 -16.701807 -16.743526 28.476528 -2e-06 -12.690599 -2e-06 16.619156 -17.531916 2.369553 -0.10592 -1.513856 -4.275879 -5.03904 -5.61287 -2.953554 4e-06 -11.02052 -3e-06 -6.111298 -15.895328 -3.840469 0.0 0.0 -0.0 -10.283369 -5.680288 -4.341842 11.028291 -11.302402 -2.372632 -1.384269 -14.238577 -6.320121 -0.62544 -26.924187 -3.827601 -3.997953 -49.73848 -3.609001 -13.708522 -7.363476 -3.72094 18.141142 -14.052736 -3.242672 5e-06 -18.787266 -3e-06 -0.429714 -8.456041 2.555506 2e-06 -1e-06 -1e-06 -15.923532 -20.094481 -5.473586 30.419205 -7.190821 1.735931 0.0 -8.162922 -2e-06 -1.861905 -22.861464 -6.16794 -1e-06 -2e-06 -1e-06 174.076569 2.530241 -6.868443 13.571452 -0.049604 0.1344 -71.721672 -6.327041 0.623743 -5.185178 1.562563 2.104303 -0.999998 0.0 0.0 -6.736042 -15.541691 -11.046832 73.423027 -0.181806 0.124477 -75.498039 3.781701 -3.156091 -6.006069 0.622101 1.659603 -1.000002 -0.0 1e-06 
0.0 0.0 0.0 0.0 -0.0 0.0 3.834787 100.269577 6.895517 92.567162 3.667893 91.005783 6.119302 -2.259544 -0.732765 -9.652942 -0.767727 -0.45853 19.717445 0.432698 -2.388162 32.054298 -0.51791 3.381351 -2.70745 -0.79991 1.226009 -38.966679 -0.5084 2.354287 6e-06 0.0 0.0 0.022831 0.023013 -0.063485 -0.118402 0.010155 -0.07423 -0.110508 0.029003 -0.047289 -92.288597 -72.632713 114.952385 31.574268 -31.08371 23.245211 50.398296 -1.296365 -0.375243 3.314352 13.619976 3.404999 17.636627 -26.322733 52.411201 -19.466663 -14.395597 29.410395 0.0 -8.774822 -1e-06 16.159843 -18.514633 5.975762 -0.609777 -1.795651 -3.889328 -4.807088 -11.046814 -2.937851 3e-06 -20.976021 1e-06 -5.019973 -25.033564 -4.031879 5e-06 -1e-06 1e-06 -10.634537 -5.686971 -3.565589 10.573275 -17.922956 -3.113901 3e-06 -13.821213 -1e-06 -0.50178 -31.181511 -4.027017 -11.03518 -60.184315 7.537261 -13.982715 -7.150198 -2.875044 13.772731 -8.401493 -3.21824 0.347732 -34.211559 0.771655 -0.96303 -17.733372 2.621018 -2e-06 1e-06 0.0 -17.346422 -20.095222 -4.201779 21.757559 -1.638374 3.866427 1e-06 -6.338825 2e-06 -1.69759 -22.591751 -6.194006 1e-06 -4e-06 -5e-06 72.894852 -75.031914 130.171875 29.255196 -41.341518 32.990543 48.902267 0.141438 -0.566431 -4.57796 11.818559 -15.955112 22.182112 -20.375898 49.933327 -16.701807 -16.743528 28.47653 -2e-06 -12.6906 1e-06 16.579735 -17.573088 2.380096 -0.105919 -1.513853 -4.275883 -5.039041 -5.612872 -2.953555 3e-06 -11.020523 -4e-06 -6.111298 -15.89533 -3.840469 0.0 -0.0 -1e-06 -10.283371 -5.680289 -4.341838 11.028293 -11.302404 -2.372634 -1.384271 -14.238583 -6.32012 -0.625442 -26.924194 -3.8276 -3.938767 -49.621246 -3.702264 -13.708524 -7.363476 -3.720941 18.141146 -14.052739 -3.242672 4e-06 -18.787271 0.0 -0.429713 -8.456047 2.555506 1e-06 1e-06 -2e-06 -15.923536 -20.094486 -5.473587 30.419207 -7.190822 1.735927 1e-06 -8.162925 -2e-06 -1.861905 -22.861471 -6.167942 0.0 -4e-06 -4e-06 176.712891 2.702156 -6.535089 13.471012 -0.028753 0.185544 -73.595352 -6.136375 0.586967 -4.858699 1.522066 2.101527 -0.999999 0.0 0.0 -9.944577 -14.312605 -10.767744 73.531136 -0.108131 0.094456 -77.345604 6.363592 -4.065926 -6.084455 0.622774 1.658511 -1.000004 0.0 -1e-06 
0.0 0.0 0.0 0.0 -0.0 0.0 4.34577 100.305473 9.51403 92.207672 4.267336 91.317131 6.363779 -2.120675 -0.836245 -9.604424 -0.709437 -0.735632 19.809521 0.851439 -2.620286 32.053307 -0.246048 3.276784 -2.69639 -0.789025 1.336642 -38.710304 -0.793591 2.513104 7e-06 -0.0 0.0 0.008724 0.027061 -0.070493 -0.129406 0.016541 -0.078725 -0.126272 0.031842 -0.057531 -91.816185 -73.061363 114.540421 31.982063 -30.732813 20.853502 50.318527 -1.129273 -0.328374 3.438709 14.45623 3.092437 17.636614 -26.32272 52.411182 -19.46666 -14.395594 29.410389 -0.0 -8.774819 -2e-06 16.053448 -18.465961 5.916409 -0.609776 -1.795651 -3.889327 -4.807087 -11.046809 -2.937852 6e-06 -20.976011 -2e-06 -5.019968 -25.033552 -4.031879 6e-06 -0.0 -1e-06 -10.634529 -5.686971 -3.565584 10.57327 -17.922947 -3.113902 3e-06 -13.821206 -1e-06 -0.501776 -31.181498 -4.027016 -10.942776 -59.908329 7.397608 -13.982706 -7.150196 -2.875041 13.772726 -8.401491 -3.218241 0.347736 -34.211544 0.77165 -0.963031 -17.733366 2.621017 -0.0 3e-06 -1e-06 -17.346409 -20.095209 -4.20178 21.757551 -1.638374 3.866424 2e-06 -6.338821 0.0 -1.697588 -22.59174 -6.194004 -1e-06 -4e-06 -2e-06 72.928642 -74.752037 130.092789 29.793377 -41.944557 32.600769 49.002411 0.221893 -0.549294 -4.901522 11.933207 -16.130537 22.182114 -20.375891 49.933323 -16.701813 -16.743528 28.47653 -4e-06 -12.690601 -1e-06 16.590063 -17.65966 2.366513 -0.10592 -1.513857 -4.275886 -5.039041 -5.61287 -2.953554 5e-06 -11.020523 -5e-06 -6.111296 -15.895332 -3.840471 -1e-06 0.0 -0.0 -10.283372 -5.680289 -4.341837 11.028296 -11.302406 -2.372633 -1.384267 -14.238582 -6.320124 -0.625437 -26.924192 -3.827603 -3.926504 -49.551624 -3.798062 -13.708525 -7.363476 -3.72094 18.14115 -14.052739 -3.242675 8e-06 -18.78727 -3e-06 -0.429712 -8.456042 2.555504 1e-06 2e-06 -0.0 -15.923534 -20.094482 -5.473587 30.41921 -7.190827 1.735925 3e-06 -8.162922 -0.0 -1.8619 -22.861469 -6.167942 -0.0 -3e-06 -2e-06 179.264648 2.631161 -6.25803 13.172288 -0.018614 0.228656 -75.257515 -5.857026 0.611338 -4.627972 1.454347 2.092009 -0.999999 0.0 -0.0 -12.957681 -12.690627 -10.906137 70.856247 -0.007355 0.042128 -78.529716 7.397385 -5.096997 -6.245798 0.621138 1.629947 -1.000003 -0.0 -0.0 
